<svg width="100" height="100" viewBox="0 0 100 100" fill="none" xmlns="http://www.w3.org/2000/svg">
<path d="M84.9832 62.4161C82.7181 62.4161 80.7886 63.9262 80.2013 65.9396L75.755 65.9396C75.4194 61.9966 73.9094 58.3893 71.4765 55.5369L74.6644 52.349C75.4195 52.7685 76.1745 52.9362 77.0134 52.9362C78.2718 52.9362 79.6141 52.4329 80.5369 51.5101C82.4664 49.5805 82.4664 46.3926 80.5369 44.4631C78.6074 42.5336 75.4195 42.5336 73.4899 44.4631C72.5671 45.3859 72.0637 46.6443 72.0637 47.9866C72.0637 48.8255 72.2315 49.5805 72.651 50.3356L69.547 53.4396C66.6946 51.0067 63.0872 49.4127 59.1443 49.1611L59.1443 44.7148C61.1577 44.1275 62.6678 42.198 62.6678 39.9329C62.6678 37.1644 60.4027 34.8993 57.6342 34.8993C54.8658 34.8993 52.6007 37.1644 52.6007 39.9329C52.6007 42.198 54.1107 44.1275 56.1242 44.7148L56.1242 49.1611C52.2651 49.4966 48.6577 51.0067 45.7215 53.4396L42.6174 50.2517C43.0369 49.4966 43.2047 48.7416 43.2047 47.9027C43.2047 46.5604 42.7013 45.302 41.7785 44.3792C39.849 42.4497 36.6611 42.4497 34.7315 44.3792C33.8087 45.302 33.3054 46.5604 33.3054 47.9027C33.3054 49.245 33.8087 50.5034 34.7315 51.4262C35.7382 52.4329 36.9966 52.8523 38.255 52.8523C39.094 52.8523 39.849 52.6007 40.604 52.2651L43.7919 55.453C42.7852 56.6275 41.9463 57.8859 41.2752 59.3121C40.9396 60.0671 41.1913 60.906 41.9463 61.2416C42.7013 61.5772 43.5403 61.3255 43.8758 60.5705C46.3926 55.2852 51.8456 51.9295 57.7181 51.9295C66.1913 51.9295 73.0705 58.8087 73.0705 67.2819C73.0705 75.755 66.1913 82.6342 57.7181 82.6342C52.8523 82.6342 48.406 80.453 45.4698 76.5101C44.9664 75.8389 44.0436 75.755 43.3725 76.2584C42.7013 76.7617 42.6174 77.6846 43.1208 78.3557C43.3725 78.6074 43.5403 78.943 43.7919 79.1946L40.604 82.3825C38.6745 81.3758 36.3255 81.6275 34.7315 83.2215C33.8087 84.1443 33.3054 85.4027 33.3054 86.745C33.3054 88.0872 33.8087 89.3456 34.7315 90.2684C35.6544 91.1913 36.9128 91.6946 38.255 91.6946C39.5973 91.6946 40.8557 91.1913 41.7785 90.2684C42.7013 89.3456 43.2047 88.0872 43.2047 86.745C43.2047 85.906 43.0369 85.151 42.6174 84.396L45.7215 81.2919C48.6577 83.8087 52.2651 85.3188 56.1242 85.5705L56.1242 90.0168C54.1107 90.604 52.6007 92.5336 52.6007 94.7987C52.6007 97.5671 54.8658 99.8322 57.6342 99.8322C60.4027 99.8322 62.6678 97.5671 62.6678 94.7987C62.6678 92.5336 61.1577 90.604 59.1443 90.0168L59.1443 85.5705C63.0872 85.2349 66.6946 83.7248 69.547 81.2919L72.651 84.396C72.2315 85.151 72.0637 85.906 72.0637 86.745C72.0637 88.0872 72.5671 89.3456 73.4899 90.2684C74.4128 91.1913 75.6711 91.6946 77.0134 91.6946C78.3557 91.6946 79.6141 91.1913 80.5369 90.2684C82.4664 88.3389 82.4664 85.151 80.5369 83.2215C78.9429 81.6275 76.594 81.3758 74.6644 82.3825L71.4765 79.1946C73.9094 76.3423 75.5033 72.7349 75.755 68.7919L80.2013 68.7919C80.7886 70.8054 82.7181 72.3154 84.9832 72.3154C87.7517 72.3154 90.0168 70.0503 90.0168 67.2819C90.0168 64.6812 87.7517 62.4161 84.9832 62.4161ZM75.5033 46.5604C75.9228 46.1409 76.4262 45.9731 76.9295 45.9731C77.4329 45.9731 78.0201 46.1409 78.3557 46.5604C79.1946 47.3993 79.1946 48.6577 78.3557 49.4966C77.5168 50.3356 76.2584 50.3356 75.4195 49.4966C75 49.0772 74.8322 48.5738 74.8322 48.0705C74.9161 47.4832 75.0839 46.9799 75.5033 46.5604ZM57.5503 37.9195C58.7248 37.9195 59.6477 38.8423 59.6477 40.0168C59.6477 41.1913 58.7248 42.1141 57.5503 42.1141C56.3758 42.1141 55.453 41.1913 55.453 40.0168C55.453 38.8423 56.3758 37.9195 57.5503 37.9195ZM36.6611 49.4966C36.2416 49.0772 36.0738 48.5738 36.0738 48.0705C36.0738 47.4832 36.3255 46.9799 36.6611 46.6443C37.0805 46.2248 37.5839 46.057 38.0872 46.057C38.5906 46.057 39.1779 46.2248 39.5134 46.6443C39.9329 47.0638 40.1007 47.5671 40.1007 48.0705C40.1007 48.6577 39.849 49.1611 39.5134 49.4966C38.7584 50.3356 37.5 50.3356 36.6611 49.4966ZM39.5973 88.3389C38.8423 89.094 37.4161 89.094 36.6611 88.3389C36.2416 87.9195 36.0738 87.4161 36.0738 86.9127C36.0738 86.4094 36.3255 85.8221 36.6611 85.4866C37.0805 85.0671 37.5839 84.8993 38.0872 84.8993C38.5906 84.8993 39.1779 85.0671 39.5134 85.4866C39.9329 85.906 40.1007 86.4094 40.1007 86.9127C40.1007 87.4161 40.0168 87.9195 39.5973 88.3389ZM57.5503 96.9798C56.3758 96.9798 55.453 96.057 55.453 94.8825C55.453 93.708 56.3758 92.7852 57.5503 92.7852C58.7248 92.7852 59.6477 93.708 59.6477 94.8825C59.6477 96.057 58.6409 96.9798 57.5503 96.9798ZM76.9295 84.8154C77.4329 84.8154 78.0201 84.9832 78.3557 85.4027C79.1946 86.2416 79.1946 87.5 78.3557 88.3389C77.6007 89.094 76.1745 89.094 75.4195 88.3389C75 87.9195 74.8322 87.4161 74.8322 86.9127C74.8322 86.4094 75.0839 85.8221 75.4195 85.4866C75.9228 84.9832 76.4262 84.8154 76.9295 84.8154ZM84.9832 69.547C83.8087 69.547 82.8859 68.6242 82.8859 67.4497C82.8859 66.2752 83.8087 65.3523 84.9832 65.3523C86.1577 65.3523 87.0805 66.2752 87.0805 67.4497C87.0805 68.5403 86.1577 69.547 84.9832 69.547ZM34.8993 68.8758L39.3456 68.8758C39.4295 69.7987 39.5134 70.6376 39.7651 71.4765C39.9329 72.1476 40.5201 72.651 41.1913 72.651C41.2752 72.651 41.4429 72.651 41.5268 72.651C42.2819 72.4832 42.7852 71.6443 42.6174 70.8893C42.3658 69.7986 42.198 68.6242 42.198 67.4497C42.198 66.6107 41.5268 65.9396 40.6879 65.9396L34.8154 65.9396C34.2282 63.9262 32.2987 62.4161 30.0336 62.4161C27.2651 62.4161 25 64.6812 25 67.4497C25 70.2181 27.2651 72.4832 30.0336 72.4832C32.2987 72.4832 34.2282 70.9732 34.8993 68.8758ZM30.1174 69.547C28.9429 69.547 28.0201 68.6242 28.0201 67.4497C28.0201 66.2752 28.9429 65.3523 30.1174 65.3523C31.2919 65.3523 32.2148 66.2752 32.2148 67.4497C32.1309 68.5403 31.208 69.547 30.1174 69.547ZM26.7617 35.9899L29.2785 38.5067C29.5302 38.7584 29.9497 38.9262 30.2852 38.9262C30.6208 38.9262 31.0403 38.7584 31.2919 38.5067C31.8792 37.9195 31.8792 36.9966 31.2919 36.4094L28.7752 33.8926C30.2852 31.9631 31.2919 29.6141 31.6275 27.0973L35.2349 27.0973C36.0738 27.0973 36.745 26.4262 36.745 25.5872C36.745 24.7483 36.0738 24.0772 35.2349 24.0772L31.6275 24.0772C31.3758 21.5604 30.3691 19.2114 28.7752 17.2819L31.2919 14.7651C31.8792 14.1779 31.8792 13.255 31.2919 12.6678C30.7047 12.0805 29.7819 12.0805 29.1946 12.6678L26.6779 15.1846C24.7483 13.6745 22.3993 12.6678 19.8825 12.3322L19.8825 8.72484C19.8825 7.88591 19.2114 7.21477 18.3725 7.21477C17.5336 7.21477 16.8624 7.88591 16.8624 8.72484L16.8624 12.3322C14.3456 12.5839 11.9966 13.5906 10.0671 15.1846L7.55033 12.6678C6.96309 12.0805 6.04027 12.0805 5.45302 12.6678C4.86577 13.255 4.86577 14.1779 5.45302 14.7651L7.9698 17.2819C6.45973 19.2114 5.45303 21.5604 5.11745 24.0772L1.51007 24.0772C0.671144 24.0772 5.3993e-07 24.7483 5.58232e-07 25.5872C5.76535e-07 26.4262 0.671144 27.0973 1.51007 27.0973L5.11745 27.0973C5.36913 29.6141 6.37584 31.9631 7.9698 33.8926L5.45302 36.4094C4.86577 36.9966 4.86577 37.9195 5.45302 38.5067C5.7047 38.7584 6.12416 38.9262 6.45973 38.9262C6.7953 38.9262 7.21476 38.7584 7.46644 38.5067L9.98322 35.9899C11.9127 37.5 14.2617 38.5067 16.7785 38.8423L16.7785 42.4497C16.7785 43.2886 17.4497 43.9597 18.2886 43.9597C19.1275 43.9597 19.7987 43.2886 19.7987 42.4497L19.7987 38.8423C22.5671 38.5906 24.9161 37.5839 26.7617 35.9899ZM8.22148 25.6711C8.22148 19.9664 12.8356 15.3523 18.5403 15.3523C24.245 15.3523 28.8591 19.9664 28.8591 25.6711C28.8591 31.3758 24.245 35.9899 18.5403 35.9899C12.8356 35.9899 8.22148 31.3758 8.22148 25.6711ZM19.7987 22.8188C18.7919 22.8188 18.0369 21.9799 18.0369 21.057C18.0369 20.0503 18.8758 19.2953 19.7987 19.2953C20.7215 19.2953 21.5604 20.1342 21.5604 21.057C21.6443 21.9799 20.8054 22.8188 19.7987 22.8188ZM23.9933 29.698C23.9933 30.7047 23.1544 31.4597 22.2315 31.4597C21.2248 31.4597 20.4698 30.6208 20.4698 29.698C20.4698 28.6913 21.3087 27.9362 22.2315 27.9362C23.2383 27.8523 23.9933 28.6913 23.9933 29.698ZM62.5839 65.7718C62.5839 64.4295 63.6745 63.3389 65.0168 63.3389C66.3591 63.3389 67.4497 64.4295 67.4497 65.7718C67.4497 67.1141 66.3591 68.2047 65.0168 68.2047C63.6745 68.2047 62.5839 67.1141 62.5839 65.7718ZM50.0839 72.2315C48.7416 72.2315 47.651 71.1409 47.651 69.7986C47.651 68.4564 48.7416 67.3658 50.0839 67.3658C51.4262 67.3658 52.5168 68.4564 52.5168 69.7986C52.5168 71.2248 51.4262 72.2315 50.0839 72.2315ZM54.9497 61.8288C53.9429 61.8288 53.1879 60.9899 53.1879 60.0671C53.1879 59.0604 54.0268 58.3054 54.9497 58.3054C55.9564 58.3054 56.7114 59.1443 56.7114 60.0671C56.7114 60.9899 55.9564 61.8288 54.9497 61.8288ZM62.6678 74.8322C62.6678 75.8389 61.8289 76.594 60.906 76.594C59.8993 76.594 59.1443 75.755 59.1443 74.8322C59.1443 73.8255 59.9832 73.0705 60.906 73.0705C61.8289 73.0705 62.6678 73.8255 62.6678 74.8322ZM15.1846 26.4262C15.1846 27.4329 14.3456 28.1879 13.4228 28.1879C12.5 28.1879 11.6611 27.349 11.6611 26.4262C11.6611 25.5034 12.5 24.6644 13.4228 24.6644C14.3456 24.6644 15.1846 25.4195 15.1846 26.4262ZM100 18.3725C100 19.2114 99.3288 19.8825 98.4899 19.8825L94.8825 19.8825C94.6309 22.3993 93.6242 24.7483 92.0302 26.6778L94.547 29.1946C95.1342 29.7819 95.1342 30.7047 94.547 31.2919C94.2953 31.5436 93.8758 31.7114 93.5403 31.7114C93.2047 31.7114 92.7852 31.5436 92.5335 31.2919L90.0168 28.7752C88.0872 30.2852 85.7383 31.2919 83.2215 31.6275L83.2215 35.2349C83.2215 36.0738 82.5503 36.745 81.7114 36.745C80.8725 36.745 80.2013 36.0738 80.2013 35.2349L80.2013 31.6275C77.6846 31.3758 75.3356 30.3691 73.406 28.7752L70.8893 31.2919C70.6376 31.5436 70.2181 31.7114 69.8825 31.7114C69.547 31.7114 69.1275 31.5436 68.8758 31.2919C68.2886 30.7047 68.2886 29.7819 68.8758 29.1946L71.3926 26.6779C69.8825 24.7483 68.8758 22.3993 68.5403 19.8825L65.0168 19.8825C64.1778 19.8825 63.5067 19.2114 63.5067 18.3725C63.5067 17.5336 64.1778 16.8624 65.0168 16.8624L68.6241 16.8624C68.8758 14.3456 69.8826 11.9966 71.4765 10.0671L68.9597 7.55033C68.3725 6.96308 68.3725 6.04027 68.9597 5.45302C69.547 4.86577 70.4698 4.86577 71.057 5.45302L73.5738 7.9698C75.5034 6.45973 77.8523 5.45302 80.3691 5.11745L80.3691 1.51007C80.3691 0.671142 81.0403 -1.76804e-06 81.8792 -1.78634e-06C82.7181 -1.80465e-06 83.3892 0.671142 83.3892 1.51007L83.3892 5.11745C85.906 5.36913 88.255 6.37584 90.1846 7.9698L92.7013 5.45302C93.2886 4.86577 94.2114 4.86577 94.7986 5.45302C95.3859 6.04027 95.3859 6.96308 94.7986 7.55033L92.2819 10.0671C92.4497 10.2349 92.5335 10.4027 92.7013 10.6544C93.2047 11.3255 93.0369 12.2483 92.3658 12.6678C91.6946 13.1711 90.7718 13.0033 90.3523 12.3322C88.4228 9.64765 85.3188 8.05369 81.9631 8.05369C76.2584 8.05369 71.6443 12.6678 71.6443 18.3725C71.6443 24.0772 76.2584 28.6913 81.9631 28.6913C87.6678 28.6913 92.2819 24.0772 92.2819 18.3725C92.2819 17.5336 92.953 16.8624 93.7919 16.8624L98.7416 16.8624C99.3289 16.9463 100 17.5336 100 18.3725ZM78.4396 16.6107C77.4329 16.6107 76.6778 15.7718 76.6778 14.849C76.6778 13.8423 77.5168 13.0873 78.4396 13.0873C79.4463 13.0873 80.2013 13.9262 80.2013 14.849C80.2013 15.8557 79.3624 16.6107 78.4396 16.6107ZM86.745 16.2752C87.7517 16.2752 88.5067 17.1141 88.5067 18.0369C88.5067 19.0436 87.6678 19.7987 86.745 19.7987C85.7382 19.7987 84.9832 18.9597 84.9832 18.0369C84.8993 17.0302 85.7382 16.2752 86.745 16.2752ZM78.0201 23.406C78.0201 22.3993 78.8591 21.6443 79.7819 21.6443C80.7886 21.6443 81.5436 22.4832 81.5436 23.406C81.5436 24.4128 80.7047 25.1678 79.7819 25.1678C78.8591 25.1678 78.0201 24.3289 78.0201 23.406Z" fill="url(#paint0_linear_46_12)"/>
<defs>
<linearGradient id="paint0_linear_46_12" x1="93.788" y1="77.0902" x2="17.5598" y2="0.861914" gradientUnits="userSpaceOnUse">
<stop stop-color="#94A1C1"/>
<stop offset="1" stop-color="#2F4A85"/>
</linearGradient>
</defs>
</svg>
