<svg width="100" height="100" viewBox="0 0 100 100" fill="none" xmlns="http://www.w3.org/2000/svg">
<path d="M32.4845 21.4045L26.6927 19.9775C28.8751 17.8791 30.3021 14.9412 30.3021 11.5836C30.3021 5.20423 25.0978 -5.47555e-07 18.7184 -4.08377e-07C12.3391 -2.69199e-07 7.13484 5.20423 7.13484 11.5836C7.13484 14.8573 8.5618 17.7951 10.7442 19.9775L4.95241 21.4045C2.01454 22.16 5.4023e-07 24.7621 6.04325e-07 27.7L1.20316e-06 55.1481C1.27091e-06 58.2538 2.51817 60.856 5.70786 60.856L5.79181 60.856L5.79181 93.8441C5.79181 96.9498 8.1421 99.552 11.08 99.8877C11.2478 99.8877 11.4157 99.8877 11.6676 99.8877C13.0945 99.8877 14.5215 99.3841 15.6127 98.3768C16.8718 97.2856 17.5433 95.6908 17.5433 94.012L17.5433 88.472C17.5433 87.6326 16.8718 86.9611 16.0324 86.9611C15.193 86.9611 14.5215 87.6326 14.5215 88.472L14.5215 94.012C14.5215 94.8514 14.1857 95.6068 13.5981 96.1944C13.0106 96.782 12.1712 97.0338 11.3318 96.9499C9.8209 96.782 8.72968 95.4389 8.72968 93.8441L8.72968 59.429C8.72968 58.5896 8.05818 57.9181 7.21878 57.9181L5.62392 57.9181C4.11301 57.9181 2.93788 56.659 2.93788 55.232L2.93787 27.7839C2.93787 26.1051 4.02907 24.6781 5.62392 24.3424L14.0178 22.2439C15.4448 22.9154 17.0397 23.2512 18.7184 23.2512C20.3972 23.2512 21.9921 22.9154 23.4191 22.2439L31.813 24.3424C33.4078 24.7621 34.499 26.189 34.499 27.7839L34.499 55.232C34.499 56.7429 33.2399 57.9181 31.813 57.9181L30.2181 57.9181C29.3787 57.9181 28.7072 58.5896 28.7072 59.429L28.7072 94.012C28.7072 95.6068 27.3642 96.9499 25.7693 96.9499C24.1745 96.9499 22.8315 95.6068 22.8315 94.012L22.8315 59.429C22.8315 58.5896 22.16 57.9181 21.3206 57.9181L16.0324 57.9181C15.193 57.9181 14.5215 58.5896 14.5215 59.429L14.5215 68.8302C14.5215 69.6696 15.193 70.3411 16.0324 70.3411C16.8718 70.3411 17.5433 69.6696 17.5433 68.8302L17.5433 60.856L19.8936 60.856L19.8936 94.012C19.8936 97.2017 22.4957 99.8877 25.7693 99.8877C28.959 99.8877 31.6451 97.2856 31.6451 94.012L31.6451 60.856L31.729 60.856C34.8348 60.856 37.4369 58.3378 37.4369 55.1481L37.4369 27.7839C37.4369 24.7621 35.3384 22.16 32.4845 21.4045ZM10.1567 11.6676C10.1567 6.88302 14.0179 3.02181 18.8024 3.02181C23.5869 3.02181 27.4481 6.88302 27.4481 11.6676C27.4481 16.4521 23.5869 20.3133 18.8024 20.3133C14.0179 20.2294 10.1567 16.3682 10.1567 11.6676ZM17.5433 76.8884L17.5433 80.6656C17.5433 81.505 16.8718 82.1765 16.0324 82.1765C15.193 82.1765 14.5215 81.505 14.5215 80.6656L14.5215 76.8884C14.5215 76.049 15.193 75.3775 16.0324 75.3775C16.8718 75.4614 17.5433 76.1329 17.5433 76.8884ZM98.3768 30.6378C99.2162 30.6378 99.8877 29.9663 99.8877 29.1269L99.8877 27.7839C99.8877 24.7621 97.8732 22.16 94.9353 21.4885L89.1435 20.0615C91.3259 17.963 92.7529 15.0251 92.7529 11.6676C92.7529 5.28817 87.5486 0.0839374 81.1693 0.0839375C74.7899 0.0839376 69.5856 5.28817 69.5856 11.6676C69.5856 14.9412 71.0126 17.8791 73.195 20.0615L67.4032 21.4885C64.4653 22.2439 62.4508 24.846 62.4508 27.7839L62.4508 55.232C62.4508 58.3378 64.969 60.9399 68.1587 60.9399L68.2426 60.9399L68.2426 93.928C68.2426 97.0338 70.5929 99.6359 73.5308 99.9717C75.2096 100.14 76.8044 99.552 78.0635 98.4608C79.3226 97.3695 79.9941 95.7747 79.9941 94.0959L79.9941 60.856L82.3444 60.856L82.3444 94.012C82.3444 97.2017 84.9465 99.8877 88.2202 99.8877C91.4099 99.8877 94.0959 97.2856 94.0959 94.012L94.0959 60.856L94.1798 60.856C97.2856 60.856 99.8877 58.3378 99.8877 55.1481L99.8877 37.0172C99.8877 36.1778 99.2162 35.5063 98.3768 35.5063C97.5374 35.5063 96.8659 36.1778 96.8659 37.0172L96.8659 55.232C96.8659 56.7429 95.6068 57.9181 94.1798 57.9181L92.585 57.9181C91.7456 57.9181 91.0741 58.5896 91.0741 59.429L91.0741 94.012C91.0741 95.6068 89.7311 96.9499 88.1362 96.9499C86.5414 96.9499 85.1984 95.6068 85.1984 94.012L85.1984 59.429C85.1984 58.5896 84.5268 57.9181 83.6874 57.9181L78.3993 57.9181C77.5599 57.9181 76.8884 58.5896 76.8884 59.429L76.8884 94.012C76.8884 94.8514 76.5526 95.6068 75.965 96.1944C75.3775 96.782 74.5381 97.0338 73.6987 96.9499C72.1878 96.782 71.0965 95.4389 71.0965 93.8441L71.0965 59.429C71.0965 58.5896 70.425 57.9181 69.5856 57.9181L67.9908 57.9181C66.4799 57.9181 65.3047 56.659 65.3047 55.232L65.3047 27.7839C65.3047 26.1051 66.396 24.6781 67.9908 24.3424L76.3847 22.2439C77.8117 22.9154 79.4066 23.2512 81.0853 23.2512C82.7641 23.2512 84.3589 22.9154 85.7859 22.2439L94.1798 24.3424C95.7747 24.7621 96.8659 26.189 96.8659 27.7839L96.8659 29.2109C96.9498 29.9663 97.6214 30.6378 98.3768 30.6378ZM72.6075 11.6676C72.6075 6.88302 76.4687 3.02181 81.2532 3.02181C86.0377 3.02181 89.899 6.88302 89.899 11.6676C89.899 16.4521 86.0377 20.3133 81.2532 20.3133C76.4687 20.3133 72.6075 16.3682 72.6075 11.6676ZM59.6808 39.7033C59.9326 39.9551 60.1005 40.3748 60.1005 40.7105C60.1005 41.1302 59.9326 41.466 59.6808 41.7178L56.4072 44.9914C56.1554 45.2433 55.7357 45.4111 55.3999 45.4111C55.0642 45.4111 54.6445 45.2433 54.3926 44.9914C53.8051 44.4039 53.8051 43.4805 54.3926 42.893L55.1481 42.1375L44.9915 42.1375L45.7469 42.893C46.3345 43.4805 46.3345 44.4039 45.7469 44.9914C45.4951 45.2433 45.0754 45.4111 44.7396 45.4111C44.4039 45.4111 43.9842 45.2433 43.7324 44.9914L40.4587 41.7178C40.2069 41.466 40.039 41.0463 40.039 40.7105C40.039 40.2908 40.2069 39.9551 40.4587 39.7033L43.7324 36.4296C44.3199 35.8421 45.2433 35.8421 45.8308 36.4296C46.4184 37.0172 46.4184 37.9405 45.8308 38.5281L45.0754 39.2836L55.232 39.2836L54.4766 38.5281C53.889 37.9405 53.889 37.0172 54.4766 36.4296C55.0642 35.8421 55.9875 35.8421 56.5751 36.4296L59.6808 39.7033Z" fill="url(#paint0_linear_46_10)"/>
<defs>
<linearGradient id="paint0_linear_46_10" x1="93.6827" y1="77.2197" x2="17.3267" y2="1.07736" gradientUnits="userSpaceOnUse">
<stop stop-color="#94A1C1"/>
<stop offset="1" stop-color="#2F4A85"/>
</linearGradient>
</defs>
</svg>
