<svg width="100" height="100" viewBox="0 0 100 100" fill="none" xmlns="http://www.w3.org/2000/svg">
<path d="M100 49.7342C100 47.2111 98.2338 45.1085 95.8789 44.5198C96.2994 43.7628 96.5517 42.8377 96.5517 41.9125C96.5517 38.9689 94.1127 36.5299 91.169 36.5299L81.3288 36.5299C80.9083 36.1093 80.4037 35.7729 79.8991 35.5206C79.8991 35.2683 79.8991 34.9319 79.8991 34.6796C79.8991 33.9226 79.815 33.1657 79.6468 32.4929C79.4785 31.7359 78.7216 31.1472 77.8806 31.3154C77.1236 31.4836 76.5349 32.2405 76.7031 33.0816C76.7872 33.5862 76.8713 34.1749 76.8713 34.6796C76.8713 35.1842 76.7872 35.6047 76.7031 36.1093C76.5349 36.7822 76.9554 37.455 77.5442 37.7073C80.0673 38.7166 81.6653 41.1556 81.6653 43.8469C81.6653 45.6972 80.9083 47.3793 79.5627 48.6409C79.3103 48.8932 79.1421 49.3137 79.1421 49.7342C79.1421 50.1548 79.3103 50.4912 79.5627 50.8276C80.9083 52.0892 81.6653 53.8553 81.6653 55.6215C81.6653 58.3129 80.0673 60.7519 77.5442 61.7611C76.8713 62.0135 76.5349 62.6863 76.7031 63.3591C76.7872 63.8637 76.8713 64.3684 76.8713 64.7889C76.8713 69.0782 73.423 72.5265 69.1337 72.5265C68.8814 72.5265 68.545 72.5265 68.2927 72.4424C67.6198 72.3583 66.947 72.7788 66.7788 73.4516C65.8537 76.143 63.2464 77.9092 60.3869 77.9092C59.4617 77.9092 58.6207 77.741 57.7796 77.4045C57.1909 77.1522 56.5181 77.3204 56.0976 77.741C54.4996 79.5071 52.2288 80.5164 49.8738 80.5164C47.5189 80.5164 45.4163 79.6754 43.7342 77.9092C43.3137 77.4886 42.6409 77.3204 42.0521 77.5728C41.2111 77.9092 40.3701 78.0774 39.4449 78.0774C36.5854 78.0774 34.0622 76.3112 33.053 73.6199C32.8007 72.947 32.2119 72.6106 31.5391 72.6106C31.2868 72.6106 30.9504 72.6947 30.6981 72.6947C27.6703 72.6947 24.979 71.0126 23.7174 68.3213C23.7174 68.3213 23.7174 68.2372 23.6333 68.2372C23.6333 68.1531 23.5492 68.1531 23.5492 68.069L23.4651 67.9849L23.381 67.9008L23.2969 67.8167L23.2128 67.7326L23.1287 67.6484C23.0446 67.6484 23.0446 67.5643 22.9605 67.5643C22.8764 67.5643 22.8764 67.5643 22.7923 67.5643L22.7082 67.5643C21.5307 67.312 20.2691 67.0597 19.1758 66.6392C18.4188 66.3869 17.5778 66.8074 17.3255 67.5643C17.0732 68.3213 17.4937 69.1623 18.2506 69.4146C19.344 69.7511 20.4373 70.0875 21.5307 70.3398C23.4651 73.6199 26.9975 75.7225 30.8663 75.7225C32.4643 79.0025 35.8284 81.1051 39.529 81.1051C40.4542 81.1051 41.3793 80.9369 42.3045 80.6846C44.4071 82.619 47.1825 83.6283 49.9579 83.6283C52.7334 83.6283 55.5088 82.5349 57.6114 80.6846C58.5366 80.9369 59.4617 81.1051 60.3869 81.1051C64.0875 81.1051 67.4516 79.0025 69.0496 75.7225C72.7502 75.7225 76.0303 73.7881 77.9647 70.9285L83.3473 70.9285C86.291 70.9285 88.73 68.4895 88.73 65.5458C88.73 64.7048 88.4777 63.8638 88.1413 63.1068L91.0849 63.1068C94.0286 63.1068 96.4676 60.6678 96.4676 57.7241C96.4676 56.799 96.2153 55.8738 95.7948 55.1169C98.2338 54.4441 100 52.2574 100 49.7342ZM93.6081 41.9125C93.6081 43.2582 92.5147 44.3516 91.169 44.3516L84.693 44.3516C84.693 44.1833 84.693 44.0151 84.693 43.8469C84.693 42.2489 84.2725 40.8192 83.5997 39.4735L91.169 39.4735C92.5147 39.4735 93.6081 40.5669 93.6081 41.9125ZM85.9546 65.4617C85.9546 66.8074 84.8612 67.9008 83.5156 67.9008L79.4786 67.9008C79.7309 66.9756 79.8991 65.9664 79.8991 64.9571C79.8991 64.7048 79.8991 64.3684 79.8991 64.1161C80.4037 63.7796 80.9083 63.4432 81.3288 63.1068L83.5156 63.1068C84.7771 63.0227 85.9546 64.1161 85.9546 65.4617ZM91.1691 60.0791L83.5997 60.0791C84.2725 58.7334 84.693 57.3036 84.693 55.7056C84.693 55.5374 84.693 55.3692 84.693 55.201L91.1691 55.201C92.5147 55.201 93.6081 56.2944 93.6081 57.64C93.6081 58.9857 92.5147 60.0791 91.1691 60.0791ZM94.6173 52.1733L84.1043 52.1733C83.7679 51.3322 83.3474 50.4912 82.7586 49.7342C83.3474 48.9773 83.7679 48.1362 84.1043 47.2952L94.6173 47.2952C95.963 47.2952 97.0564 48.3886 97.0564 49.7342C97.0564 51.0799 95.963 52.1733 94.6173 52.1733ZM10.9336 68.3213L1.51388 68.3213C0.672836 68.3213 1.34497e-06 67.6484 1.32662e-06 66.8074C1.30828e-06 65.9664 0.672836 65.3776 1.51388 65.3776L10.9336 65.3776C11.7746 65.3776 12.4474 66.0505 12.4474 66.8915C12.4474 67.7326 11.7746 68.3213 10.9336 68.3213ZM6.99093e-07 38.0437C6.80744e-07 37.2027 0.672835 36.5299 1.51388 36.5299L15.1388 36.5299L20.2691 32.577C21.2784 27.6148 25.6518 23.9142 30.7822 23.9142C32.3801 20.6341 35.7443 18.5315 39.4449 18.5315C40.3701 18.5315 41.2952 18.6997 42.2204 18.9521C44.323 17.0177 47.0984 16.0084 49.8738 16.0084C52.6493 16.0084 55.4247 17.1018 57.5273 18.9521C58.4525 18.6997 59.3776 18.5315 60.3028 18.5315C64.0034 18.5315 67.3675 20.6341 68.9655 23.9142C70.984 23.9142 72.9184 24.5029 74.6846 25.5122C75.3574 25.9327 75.6098 26.8579 75.1892 27.5307C74.7687 28.2035 73.8436 28.4558 73.1707 28.0353C71.741 27.1102 69.8907 26.6897 68.2086 26.942C67.5357 27.0261 66.8629 26.6056 66.6947 25.9327C65.7696 23.2414 63.1623 21.4752 60.3028 21.4752C59.3776 21.4752 58.5366 21.6434 57.6955 21.9798C57.1068 22.2321 56.434 22.0639 56.0135 21.6434C54.4155 19.8772 52.1447 18.868 49.7897 18.868C47.4348 18.868 45.4163 19.8772 43.7342 21.6434C43.3137 22.0639 42.6409 22.2321 42.0521 21.9798C41.2111 21.6434 40.3701 21.4752 39.4449 21.4752C36.5854 21.4752 34.0622 23.2414 33.053 25.9327C32.8007 26.6056 32.2119 26.942 31.5391 26.942C31.2868 26.942 30.9504 26.8579 30.6981 26.8579C28.259 26.8579 26.0723 27.9512 24.6426 29.8015C26.3246 29.1287 28.1749 28.7082 30.0252 28.7082L49.6215 28.7082C52.5652 28.7082 55.0042 31.1472 55.0042 34.0908C55.0042 34.9319 54.7519 35.7729 54.4155 36.5299L68.0404 36.5299C70.984 36.5299 73.423 38.9689 73.423 41.9125C73.423 42.8377 73.1707 43.7628 72.7502 44.5198C75.1051 45.1085 76.8713 47.2111 76.8713 49.7342C76.8713 52.2574 75.1051 54.36 72.7502 54.9487C73.1707 55.7056 73.423 56.6308 73.423 57.5559C73.423 60.4996 70.984 62.9386 68.0404 62.9386L65.0967 62.9386C65.4331 63.6955 65.6854 64.5366 65.6854 65.3776C65.6854 68.3213 63.2464 70.7603 60.3028 70.7603L30.614 70.7603C29.7729 70.7603 29.1001 70.0875 29.1001 69.2464C29.1001 68.4054 29.7729 67.7326 30.614 67.7326L60.3869 67.7326C61.7326 67.7326 62.8259 66.6392 62.8259 65.2935C62.8259 63.9479 61.7326 62.8545 60.3869 62.8545L46.2574 62.8545C45.4163 62.8545 44.7435 62.1817 44.7435 61.3406C44.7435 60.4996 45.4163 59.8267 46.2574 59.8267L68.1245 59.8267C69.4701 59.8267 70.5635 58.7334 70.5635 57.3877C70.5635 56.0421 69.4701 54.9487 68.1245 54.9487L46.2574 54.9487C45.4163 54.9487 44.7435 54.2759 44.7435 53.4348C44.7435 52.5938 45.4163 51.9209 46.2574 51.9209L71.4886 51.9209C72.8343 51.9209 73.9277 50.8276 73.9277 49.4819C73.9277 48.1362 72.8343 47.0429 71.4886 47.0429L46.2574 47.0429C45.4163 47.0429 44.7435 46.3701 44.7435 45.529C44.7435 44.688 45.4163 44.0151 46.2574 44.0151L68.1245 44.0151C69.4701 44.0151 70.5635 42.9218 70.5635 41.5761C70.5635 40.2304 69.4701 39.1371 68.1245 39.1371L49.7056 39.1371L35.8284 39.1371C34.9874 39.1371 34.3145 38.4643 34.3145 37.6232C34.3145 36.7822 34.9874 36.1093 35.8284 36.1093L49.7056 36.1093C51.0513 36.1093 52.1447 35.016 52.1447 33.6703C52.1447 32.3246 51.0513 31.2313 49.7056 31.2313L30.1093 31.2313C27.6703 31.2313 25.2313 32.0723 23.2969 33.5862L16.5685 38.8007C16.3162 38.9689 15.9798 39.1371 15.6434 39.1371L1.51388 39.1371C0.672835 39.4735 7.15607e-07 38.8007 6.99093e-07 38.0437ZM75.9462 19.2885C79.6468 19.2885 82.5904 16.3448 82.5904 12.6442C82.5904 8.94365 79.6468 6 75.9462 6C72.2456 6 69.3019 8.94365 69.3019 12.6442C69.3019 16.3448 72.3297 19.2885 75.9462 19.2885ZM75.9462 8.94365C77.9647 8.94365 79.6468 10.6257 79.6468 12.6442C79.6468 14.6627 77.9647 16.3448 75.9462 16.3448C73.9277 16.3448 72.2456 14.6627 72.2456 12.6442C72.2456 10.6257 73.9277 8.94365 75.9462 8.94365ZM24.0538 80.2641C20.3532 80.2641 17.4096 83.2077 17.4096 86.9083C17.4096 90.6089 20.3532 93.5526 24.0538 93.5526C27.7544 93.5526 30.6981 90.6089 30.6981 86.9083C30.6981 83.2077 27.6703 80.2641 24.0538 80.2641ZM24.0538 90.6089C22.0353 90.6089 20.3532 88.9268 20.3532 86.9083C20.3532 84.8898 22.0353 83.2077 24.0538 83.2077C26.0723 83.2077 27.7544 84.8898 27.7544 86.9083C27.7544 88.9268 26.0723 90.6089 24.0538 90.6089ZM87.132 30.6426C90.1598 30.6426 92.5988 28.2035 92.5988 25.1758C92.5988 22.148 90.1598 19.709 87.132 19.709C84.1043 19.709 81.6653 22.148 81.6653 25.1758C81.6653 28.2035 84.1043 30.6426 87.132 30.6426ZM87.132 22.6526C88.4777 22.6526 89.6552 23.746 89.6552 25.1758C89.6552 26.5214 88.5618 27.6989 87.132 27.6989C85.7864 27.6989 84.6089 26.6056 84.6089 25.1758C84.6089 23.8301 85.7864 22.6526 87.132 22.6526ZM79.3945 76.3112C76.3667 76.3112 73.9277 78.7502 73.9277 81.778C73.9277 84.8057 76.3667 87.2447 79.3945 87.2447C82.4222 87.2447 84.8612 84.8057 84.8612 81.778C84.7771 78.7502 82.3381 76.3112 79.3945 76.3112ZM79.3945 84.217C78.0488 84.217 76.8713 83.1236 76.8713 81.6939C76.8713 80.3482 77.9647 79.1707 79.3945 79.1707C80.8242 79.1707 81.9176 80.2641 81.9176 81.6939C81.8335 83.1236 80.7401 84.217 79.3945 84.217ZM10.513 71.349C7.48528 71.349 5.04626 73.7881 5.04626 76.8158C5.04626 79.8436 7.48528 82.2826 10.513 82.2826C13.5408 82.2826 15.9798 79.8436 15.9798 76.8158C15.9798 73.7881 13.5408 71.349 10.513 71.349ZM10.513 79.3389C9.16737 79.3389 7.98991 78.2456 7.98991 76.8158C7.98991 75.4701 9.08326 74.2927 10.513 74.2927C11.8587 74.2927 13.0362 75.386 13.0362 76.8158C13.0362 78.1615 11.8587 79.3389 10.513 79.3389ZM26.9134 41.6602C24.8108 41.6602 23.0446 42.9218 22.2876 44.688C21.9512 44.6039 21.6148 44.6039 21.2784 44.6039C18.3347 44.6039 15.8957 47.0429 15.8957 49.9865C15.8957 52.9302 18.3347 55.3692 21.2784 55.3692C21.4466 55.3692 21.6148 55.3692 21.783 55.3692C22.6241 57.8082 24.979 59.5744 27.7544 59.5744C31.2027 59.5744 34.0622 56.7149 34.0622 53.2666C34.0622 51.3322 33.2212 49.6501 31.7914 48.3886C31.9596 47.8839 32.0437 47.3793 32.0437 46.7906C32.0437 44.0151 29.7729 41.6602 26.9134 41.6602ZM27.7544 56.5467C25.9882 56.5467 24.4743 55.201 24.3902 53.3507C24.3902 52.8461 24.0538 52.4256 23.7174 52.1733C23.4651 52.005 23.2128 52.005 22.9605 52.005C22.7923 52.005 22.54 52.0892 22.3717 52.1733C22.0353 52.3415 21.6989 52.4256 21.3625 52.4256C20.0168 52.4256 18.9235 51.3322 18.9235 49.9865C18.9235 48.6409 20.0168 47.5475 21.3625 47.5475C21.783 47.5475 22.2035 47.7157 22.6241 47.968C23.0446 48.2204 23.6333 48.3045 24.1379 48.0521C24.6426 47.7998 24.8949 47.2952 24.8949 46.7906C24.8949 45.6131 25.9041 44.688 26.9975 44.688C28.1749 44.688 29.1842 45.6131 29.1842 46.8747C29.1842 47.2952 29.016 47.7157 28.7637 48.1362C28.5114 48.4727 28.4273 48.8932 28.5114 49.3137C28.5955 49.7342 28.9319 50.0706 29.2683 50.2389C30.4458 50.8276 31.1186 52.005 31.1186 53.2666C31.1186 55.0328 29.6047 56.5467 27.7544 56.5467Z" fill="url(#paint0_linear_46_8)"/>
<defs>
<linearGradient id="paint0_linear_46_8" x1="93.788" y1="73.6079" x2="27.5078" y2="-1.96848" gradientUnits="userSpaceOnUse">
<stop stop-color="#94A1C1"/>
<stop offset="1" stop-color="#2F4A85"/>
</linearGradient>
</defs>
</svg>
