<svg width="100" height="100" viewBox="0 0 100 100" fill="none" xmlns="http://www.w3.org/2000/svg">
<path d="M22.5537 24.2626C21.9652 23.6741 21.9652 22.7492 22.5537 22.1607C23.1423 21.5722 24.0671 21.5722 24.6557 22.1607L29.9525 27.4576C30.5411 28.0461 30.5411 28.971 29.9525 29.5595C29.7003 29.8117 29.2799 29.9799 28.9436 29.9799C28.6073 29.9799 28.1869 29.8117 27.9347 29.5595L22.5537 24.2626ZM85.2754 63.6949C84.2665 65.2083 83.0894 66.6376 81.7442 67.9828L76.111 73.616C78.0448 75.8861 77.9607 79.2492 75.7747 81.3511C75.018 82.1078 74.0931 82.6123 73.1683 82.8645C74.5976 85.0505 74.3454 88.0773 72.4116 90.0111C71.3186 91.1041 69.8052 91.6926 68.3759 91.6926C67.2829 91.6926 66.1899 91.3563 65.265 90.7678C65.0128 91.7767 64.5083 92.6175 63.7516 93.3742C62.6586 94.4672 61.1452 95.0557 59.7159 95.0557C58.2866 95.0557 56.7732 94.4672 55.6802 93.3742L53.3261 91.02C53.0738 91.9449 52.5694 92.7857 51.8967 93.4583C50.8037 94.5513 49.3744 95.1398 47.861 95.1398C46.4317 95.1398 45.0865 94.6354 44.0775 93.6264C42.9845 94.5513 41.7234 94.9717 40.3781 94.9717C38.9488 94.9717 37.4354 94.3831 36.3424 93.2901C35.5857 92.5334 35.0813 91.6086 34.829 90.6837C33.9042 91.2723 32.8112 91.6086 31.7182 91.6086C30.2889 91.6086 28.7755 91.02 27.6825 89.927C25.7487 87.9932 25.4965 84.9665 26.9258 82.7804C26.0009 82.5282 25.0761 82.0238 24.3194 81.2671C22.2174 79.1651 22.1334 75.718 23.9831 73.532L18.3499 67.8988C15.9957 65.5446 14.0619 62.8541 12.6326 59.8273L11.2874 57.0528L0.441407 46.375C-0.147134 45.7864 -0.147134 44.8616 0.441407 44.273C1.02995 43.6845 1.9548 43.6845 2.54334 44.273L13.3893 55.2031C13.4734 55.2872 13.6415 55.4553 13.6415 55.6235L15.1549 58.5662C16.4161 61.2567 18.1817 63.6949 20.2837 65.7968L45.8432 91.3563C46.8521 92.3653 48.7018 92.3653 49.7948 91.3563C50.8878 90.2633 50.8878 88.4977 49.7948 87.4047L38.9488 76.5587C38.3603 75.9702 38.3603 75.0453 38.9488 74.4568C39.5374 73.8683 40.4622 73.8683 41.0508 74.4568L57.8662 91.2723C58.9592 92.3653 60.7249 92.3653 61.8179 91.2723C62.9109 90.1793 62.9109 88.4136 61.8179 87.3206L45.0024 70.5052C44.4139 69.9166 44.4139 68.9918 45.0024 68.4032C45.5909 67.8147 46.5158 67.8147 47.1043 68.4032L66.4421 87.9092C67.5351 89.0022 69.3007 89.0022 70.3937 87.9092C71.4868 86.8162 71.4868 85.0506 70.3937 83.9575L50.9719 64.5357C50.3833 63.9471 50.3833 63.0223 50.9719 62.4337C51.5604 61.8452 52.4853 61.8452 53.0738 62.4337L69.8893 79.2492C70.9823 80.3422 72.7479 80.3422 73.8409 79.2492C74.9339 78.1562 74.9339 76.3906 73.8409 75.2976L50.1311 51.5878L40.3781 61.2567C39.2851 62.3497 37.7717 62.9382 36.3424 62.9382C34.9131 62.9382 33.3997 62.3497 32.3067 61.2567C30.0366 58.9866 30.0366 55.3713 32.3067 53.1852L47.3566 38.1354C47.4406 38.0513 47.4406 38.0513 47.5247 37.9672C46.2636 37.2946 44.9183 36.8742 43.5731 36.7061L34.4087 35.529C33.5679 35.4449 33.0634 34.6882 33.1475 33.8475C33.2316 33.0067 33.9883 32.5022 34.829 32.5863L43.9935 33.7634C46.1795 34.0156 48.2814 34.7723 50.1311 35.9494C51.9808 34.7723 54.0827 34.0156 56.2688 33.7634L64.9287 32.6704L75.4384 22.1607C76.0269 21.5722 76.9518 21.5722 77.5403 22.1607C78.1289 22.7492 78.1289 23.6741 77.5403 24.2626L66.6943 35.1086C66.4421 35.3608 66.1899 35.4449 65.8536 35.529L56.521 36.7061C53.8305 37.0424 51.3082 38.3036 49.4585 40.1533L34.4087 55.2031C33.3156 56.2961 33.3156 58.0617 34.4087 59.1547C35.5017 60.2477 37.2673 60.2477 38.3603 59.1547L48.954 48.4769C49.5426 47.8884 50.4674 47.8884 51.056 48.4769C57.6981 55.119 64.2561 51.3355 64.3402 51.2515C65.0128 50.8311 65.9376 51.0833 66.358 51.7559C66.7784 52.4285 66.5262 53.3534 65.8536 53.7738C65.7695 53.7738 62.4064 55.7916 57.7821 55.2031L74.0091 71.5141L79.6423 65.8809C80.8193 64.7038 81.9123 63.4427 82.8372 62.0134C83.2576 61.3407 84.1824 61.1726 84.8551 61.593C85.6117 62.0974 85.7799 63.0223 85.2754 63.6949ZM26.2531 79.2492C27.2621 80.2581 28.7755 80.3422 29.8685 79.5014L26.0009 75.6339C25.2442 76.811 25.3283 78.3244 26.2531 79.2492ZM33.5679 87.9092L35.838 85.6391L31.8863 81.6875L29.6162 83.9575C28.5232 85.0506 28.5232 86.8162 29.6162 87.9092C30.7092 89.0022 32.4749 89.0022 33.5679 87.9092ZM41.8915 91.6086L38.024 87.741C37.2673 88.834 37.3514 90.3474 38.2762 91.3563C39.2851 92.2812 40.7985 92.3653 41.8915 91.6086ZM89.2271 52.5126L86.6207 55.2031C86.0321 55.7916 86.0321 56.7165 86.6207 57.305C86.8729 57.5573 87.2933 57.7254 87.6296 57.7254C87.9659 57.7254 88.3863 57.5573 88.6385 57.305L91.329 54.6145C91.9175 54.026 91.9175 53.1012 91.329 52.5126C90.7405 51.9241 89.8156 51.9241 89.2271 52.5126ZM99.5686 44.273C98.98 43.6845 98.0552 43.6845 97.4666 44.273L95.0284 46.7954C94.4399 47.3839 94.4399 48.3087 95.0284 48.8973C95.2806 49.1495 95.701 49.3177 96.0373 49.3177C96.3736 49.3177 96.794 49.1495 97.0463 48.8973L99.4845 46.4591C100.157 45.7864 100.157 44.8616 99.5686 44.273ZM37.6036 16.3594C37.6036 9.5491 43.1527 4 49.963 4C56.7732 4 62.3223 9.5491 62.3223 16.3594C62.3223 23.1696 56.7732 28.7187 49.963 28.7187C43.1527 28.7187 37.6036 23.2537 37.6036 16.3594ZM40.5463 16.3594C40.5463 21.5722 44.7502 25.776 49.963 25.776C55.1758 25.776 59.3796 21.5722 59.3796 16.3594C59.3796 11.1466 55.1757 6.94271 49.963 6.94271C44.8342 6.94271 40.5463 11.2306 40.5463 16.3594ZM45.5069 20.8995C45.7591 21.1518 46.1795 21.3199 46.5158 21.3199C46.8521 21.3199 47.2725 21.1518 47.5247 20.8995L49.963 18.4613L52.4012 20.8995C52.6534 21.1518 53.0738 21.3199 53.4101 21.3199C53.7464 21.3199 54.1668 21.1518 54.419 20.8995C55.0076 20.311 55.0076 19.3861 54.419 18.7976L51.9808 16.3594L54.419 13.9211C55.0076 13.3326 55.0076 12.4077 54.419 11.8192C53.8305 11.2306 52.9057 11.2306 52.3171 11.8192L49.8789 14.2574L47.4406 11.8192C46.8521 11.2306 45.9272 11.2306 45.3387 11.8192C44.7502 12.4077 44.7502 13.3326 45.3387 13.9211L47.7769 16.3594L45.3387 18.7976C44.9183 19.3861 44.9183 20.311 45.5069 20.8995Z" fill="url(#paint0_linear_46_11)"/>
<defs>
<linearGradient id="paint0_linear_46_11" x1="93.788" y1="74.3779" x2="24.4848" y2="-1.53512" gradientUnits="userSpaceOnUse">
<stop stop-color="#94A1C1"/>
<stop offset="1" stop-color="#2F4A85"/>
</linearGradient>
</defs>
</svg>
