<svg width="100" height="100" viewBox="0 0 100 100" fill="none" xmlns="http://www.w3.org/2000/svg">
<path d="M40.5042 72.7227C40.4202 73.479 39.7479 73.9832 39.0756 73.9832C38.9916 73.9832 38.9076 73.9832 38.8235 73.9832C37.563 73.8151 36.3025 73.563 35.042 73.3109C34.2857 73.1428 33.6975 72.3865 33.8655 71.5462C34.0336 70.7899 34.7899 70.2017 35.6303 70.3697C36.8908 70.6218 38.0672 70.7899 39.3277 71.042C40.084 71.126 40.6723 71.8823 40.5042 72.7227ZM100 50.3697C100 57.5126 94.2017 63.3109 87.0588 63.3109L85.9664 63.3109L85.9664 66C85.9664 66.5882 85.6302 67.0924 85.042 67.3445C84.3697 67.6807 67.395 74.8235 50.084 74.8235C49.0756 74.8235 48.0672 74.8235 46.9748 74.7395C46.1345 74.7395 45.5462 73.9832 45.5462 73.2269C45.5462 72.3865 46.3025 71.7983 47.0588 71.7983C48.0672 71.8823 49.0756 71.8823 50 71.8823C64.5378 71.8823 79.2437 66.4202 82.9412 64.9916L82.9412 59.9496C78.0672 60.8739 63.9496 63.3109 50 63.3109C36.0504 63.3109 21.9328 60.8739 17.0588 59.9496L17.0588 64.9916C18.7395 65.6639 22.7731 67.1765 28.0672 68.605C28.8235 68.8571 29.3277 69.6134 29.0756 70.3697C28.8235 71.126 28.0672 71.6302 27.3109 71.3781C20.1681 69.4454 15.2941 67.3445 15.042 67.2605C14.5378 67.0084 14.1176 66.5042 14.1176 65.916L14.1176 63.3109L12.9412 63.3109C5.79833 63.3109 6.87505e-07 57.5126 5.31671e-07 50.3697C3.75836e-07 43.2269 5.96639 37.4286 13.1092 37.4286L14.2857 37.4286L14.2857 34.8235C14.2857 34.2353 14.6219 33.7311 15.2101 33.479C15.8824 33.1429 32.8571 26 50.1681 26C67.479 26 84.4538 33.2269 85.126 33.479C85.6302 33.7311 86.0504 34.2353 86.0504 34.8235L86.0504 37.4286L87.2269 37.4286C94.2017 37.4286 100 43.2269 100 50.3697ZM17.1429 40.7899C22.0168 39.8655 36.1345 37.4286 50.084 37.4286C54.7899 37.4286 59.916 37.6807 65.2941 38.2689C66.1344 38.3529 66.7227 39.1092 66.6386 39.8655C66.5546 40.7059 65.8824 41.2941 65.042 41.2101C59.7479 40.7059 54.7059 40.3697 50.084 40.3697C35.7983 40.3697 21.2605 42.9748 17.1429 43.8151L17.1429 48.9412L82.9412 48.9412L82.9412 43.8151C81.1765 43.479 77.479 42.8067 72.6891 42.1344C71.8487 42.0504 71.3445 41.2941 71.4286 40.4538C71.5126 39.6134 72.2689 39.1092 73.1092 39.1933C77.479 39.7815 80.9244 40.4538 82.9412 40.7899L82.9412 35.7479C79.2437 34.3193 64.5378 28.8571 50 28.8571C35.4622 28.8571 20.7563 34.3193 17.0588 35.7479L17.0588 40.7899L17.1429 40.7899ZM14.2017 60.4538L14.2017 58.1849L14.2017 42.6387L14.2017 40.3697L13.0252 40.3697C7.47899 40.3697 3.02522 44.8235 3.02522 50.3697C3.02522 55.916 7.47899 60.3697 13.0252 60.3697L14.2017 60.3697L14.2017 60.4538ZM83.0252 57.0084L83.0252 51.8823L17.2269 51.8824L17.2269 57.0084C21.3445 57.8487 35.7983 60.4538 50.1681 60.4538C64.3697 60.4538 78.9076 57.7647 83.0252 57.0084ZM97.0588 50.3697C97.0588 44.8235 92.605 40.3697 87.0588 40.3697L85.9664 40.3697L85.9664 42.6387L85.9664 58.1849L85.9664 60.4538L87.1428 60.4538C92.605 60.4538 97.0588 55.916 97.0588 50.3697Z" fill="url(#paint0_linear_46_9)"/>
<defs>
<linearGradient id="paint0_linear_46_9" x1="93.788" y1="63.7014" x2="64.3621" y2="3.5326" gradientUnits="userSpaceOnUse">
<stop stop-color="#94A1C1"/>
<stop offset="1" stop-color="#2F4A85"/>
</linearGradient>
</defs>
</svg>
