<svg width="100" height="100" viewBox="0 0 100 100" fill="none" xmlns="http://www.w3.org/2000/svg">
<path d="M69.7899 33.2773L61.8067 26.7227L61.8067 18.2353C61.8067 17.395 61.1345 16.7227 60.2941 16.7227L54.4958 16.7227L54.4958 10.6723C58.6975 10.4202 63.8235 10.084 67.1009 10.9244C67.6891 11.0924 68.3614 10.8403 68.6975 10.3361L71.1345 6.55462C71.3866 6.21849 71.3866 5.79831 71.3025 5.37815C71.2185 4.95798 70.8824 4.62185 70.5462 4.45378C64.4958 1.51261 58.1933 -7.24172e-07 51.2185 -5.72004e-07C45.084 -4.3817e-07 40.7143 1.93277 40.5462 2.0168C40.042 2.2689 39.7059 2.77311 39.7059 3.36134L39.7059 7.89916C39.7059 8.40336 40.042 8.90756 40.4622 9.15966C40.5462 9.24369 42.395 10.1681 45.5042 10.5882L45.5042 16.6387L39.7059 16.6387C38.8655 16.6387 38.1933 17.3109 38.1933 18.1513L38.1933 26.6387L34.2437 29.8319C33.6555 30.3361 33.4874 31.2605 34.0756 31.9328C34.3277 32.2689 34.7479 32.437 35.2521 32.437C35.5882 32.437 35.9244 32.3529 36.1765 32.1008L40.2101 28.7395L59.874 28.7395L67.9412 35.3781C70.5462 37.479 71.9748 40.6723 71.9748 43.9496L71.9748 69.0756C71.9748 69.916 72.6471 70.5882 73.4874 70.5882C74.3278 70.5882 75 69.916 75 69.0756L75 44.1177C74.916 39.916 73.0673 35.9664 69.7899 33.2773ZM42.563 7.05882L42.563 4.45378C43.9916 3.94958 47.1849 3.0252 51.1345 3.0252C57.1009 3.0252 62.563 4.11764 67.6891 6.47059L66.7647 7.98319C63.1513 7.31092 58.3614 7.64705 54.0756 7.89916C52.2269 8.06722 50.3782 8.15126 49.0336 8.15126C45.9244 8.15126 43.6555 7.47899 42.563 7.05882ZM51.5546 10.9244L51.5546 16.8067L48.3614 16.8067L48.3614 11.0084C48.5294 11.0084 48.6975 11.0084 48.9496 11.0084L49.0336 11.0084C49.7899 11.0084 50.6303 11.0084 51.5546 10.9244ZM58.8656 25.9664L41.0504 25.9664L41.0504 19.7479L58.8656 19.7479L58.8656 25.9664ZM74.916 77.2269L74.916 81.0084C74.916 81.8488 74.2437 82.521 73.4034 82.521C72.563 82.521 71.8908 81.8488 71.8908 81.0084L71.8908 77.2269C71.8908 76.3866 72.563 75.7143 73.4034 75.7143C74.2437 75.7143 74.916 76.3866 74.916 77.2269ZM74.916 88.7395L74.916 94.2857C74.916 97.395 72.395 100 69.2017 100L30.7143 100C27.6051 100 25 97.479 25 94.2857L25 44.1177C25 40.8403 26.1765 37.6471 28.2773 35.1261C28.7815 34.5378 29.7059 34.4538 30.3781 34.958C30.9664 35.4622 31.0504 36.3866 30.5462 37.0588C28.8656 39.0756 27.9412 41.5966 27.9412 44.2017L27.9412 94.2857C27.9412 95.7983 29.2017 96.9748 30.6303 96.9748L69.1177 96.9748C70.6303 96.9748 71.8067 95.7143 71.8067 94.2857L71.8067 88.7395C71.8067 87.8992 72.479 87.2269 73.3193 87.2269C74.2437 87.3109 74.916 87.9832 74.916 88.7395ZM66.2605 62.9412C66.2605 53.9496 58.9496 46.7227 50.042 46.7227C41.0504 46.7227 33.8235 54.0336 33.8235 62.9412C33.8235 71.9328 41.1345 79.1597 50.042 79.1597C58.9496 79.2437 66.2605 71.9328 66.2605 62.9412ZM36.6807 62.9412C36.6807 55.6303 42.6471 49.6639 49.958 49.6639C57.2689 49.6639 63.2353 55.6303 63.2353 62.9412C63.2353 70.2521 57.2689 76.2185 49.958 76.2185C42.6471 76.3025 36.6807 70.3361 36.6807 62.9412ZM54.0756 70.8403L54.0756 66.9748L57.9412 66.9748C58.7815 66.9748 59.4538 66.3025 59.4538 65.4622L59.4538 60.2521C59.4538 59.4118 58.7815 58.7395 57.9412 58.7395L54.0756 58.7395L54.0756 54.874C54.0756 54.0336 53.4034 53.3614 52.563 53.3614L47.353 53.3614C46.5126 53.3614 45.8404 54.0336 45.8404 54.874L45.8404 58.7395L41.9748 58.7395C41.1345 58.7395 40.4622 59.4118 40.4622 60.2521L40.4622 65.4622C40.4622 66.3025 41.1345 66.9748 41.9748 66.9748L45.8404 66.9748L45.8404 70.8403C45.8404 71.6807 46.5126 72.3529 47.353 72.3529L52.563 72.3529C53.4034 72.3529 54.0756 71.6807 54.0756 70.8403ZM51.1345 65.5462L51.1345 69.4118L48.8655 69.4118L48.8655 65.5462C48.8655 64.7059 48.1933 64.0336 47.353 64.0336L43.4874 64.0336L43.4874 61.7647L47.353 61.7647C48.1933 61.7647 48.8655 61.0924 48.8655 60.2521L48.8655 56.3866L51.1345 56.3866L51.1345 60.2521C51.1345 61.0924 51.8067 61.7647 52.6471 61.7647L56.5126 61.7647L56.5126 64.0336L52.6471 64.0336C51.7227 64.1177 51.1345 64.7059 51.1345 65.5462Z" fill="url(#paint0_linear_46_13)"/>
<defs>
<linearGradient id="paint0_linear_46_13" x1="71.894" y1="77.2197" x2="10.8705" y2="46.7591" gradientUnits="userSpaceOnUse">
<stop stop-color="#94A1C1"/>
<stop offset="1" stop-color="#2F4A85"/>
</linearGradient>
</defs>
</svg>
