<svg width="99" height="107" viewBox="0 0 99 107" fill="none" xmlns="http://www.w3.org/2000/svg">
<g clip-path="url(#clip0_24_24872)">
<path d="M80.6221 56.0215C75.1525 56.2408 71.105 57.7756 65.4166 59.8586C62.3536 61.0645 58.3061 62.709 53.6022 65.3401C45.726 59.8586 38.1779 53.8289 31.2862 47.1414C25.5978 41.6598 18.5967 33.7664 18.0497 23.3514C17.9403 21.2684 17.8309 17.6506 19.6906 13.7039C19.9094 13.1557 24.6133 4.05634 34.2398 3.83708C39.6 3.72744 44.9602 6.46822 47.695 10.6342C48.4608 11.8401 49.9923 14.252 50.1017 17.541C50.2111 20.8299 48.6796 23.4611 49.9923 24.667C50.4298 25.1055 51.1956 25.2151 51.7425 25.1055C52.8365 24.7766 53.1646 23.2418 53.821 21.5973C53.821 21.5973 54.5867 19.5143 56.884 16.0061C57.5403 15.0195 59.4 12.2787 62.5724 10.7438C65.6354 9.09937 69.9017 8.66085 73.2928 10.5246C77.7779 13.0461 79.9658 19.4047 79.2 24.5574C77.3403 36.836 66.6199 45.4969 56.2276 51.0881C55.2431 51.6363 56.1182 52.9518 57.1028 52.5133C70.7768 46.2643 89.8111 30.5871 82.0442 13.1557C78.9812 6.13933 71.105 3.28892 63.8851 5.04302C59.4 6.13933 55.6807 8.98974 52.9459 12.6076C51.1956 7.4549 47.2575 3.17929 41.7878 1.0963C31.1768 -2.85042 19.6906 3.72745 15.7525 13.8135C9.62652 29.2715 26.2541 47.3606 27.1293 48.3473C31.6144 53.0615 41.4597 60.7356 43.3193 62.2705C46.1635 64.4631 48.5702 66.3268 50.2111 67.5328C49.0077 68.0809 47.9138 68.7387 46.7105 69.2869C40.5845 63.9149 34.7867 61.1742 30.958 59.6393C25.8166 57.666 14.768 53.6096 6.23536 58.6526C4.92265 59.4201 1.96906 61.1742 0.546961 64.792C-1.53149 70.1639 1.64088 75.3166 1.85967 75.6455C4.48508 79.7018 8.86077 80.9078 11.2674 81.4559C18.9249 83.4293 26.0354 80.9078 36.4276 77.0707C40.2564 75.6455 43.3193 74.3299 45.179 73.4529C45.8354 73.8914 46.8199 74.7684 47.9138 75.8647C49.8829 77.8381 55.7901 83.5389 56.337 91.542C56.4464 93.0768 56.5558 95.1598 55.4619 97.5717C53.9304 101.08 51.0862 102.834 49.8829 103.382C49.8829 103.382 42.8818 107.11 34.6774 102.395C34.2398 102.176 33.8022 101.957 33.474 101.738C32.7083 101.299 32.4895 100.97 32.0519 101.08C31.7238 101.19 31.505 101.409 31.505 101.738C31.505 102.067 31.8332 102.286 31.8332 102.395C40.8033 109.741 49.9923 106.123 49.9923 106.123C51.1956 105.684 54.2586 104.369 56.5558 101.299C58.4155 98.7776 58.853 96.2561 59.1812 94.8309C60.3845 87.9242 57.3216 82.2233 56.1182 79.9211C55.0243 77.8381 52.9459 74.6588 49.2265 71.5891C50.5392 70.9313 51.8519 70.2735 53.274 69.7254C58.3061 73.0143 62.6818 75.2069 65.8541 76.6322C72.4177 79.4826 76.4652 81.3463 82.263 81.2367C84.5602 81.2367 90.1392 81.0174 94.5149 77.3996C96.9216 75.4262 97.7967 73.4529 97.9061 73.0143C99.3282 69.6158 98.5624 66.5461 98.3437 65.669C97.0309 60.9549 92.7646 58.7623 91.2332 57.8852C87.7326 55.8022 84.1227 55.9119 80.6221 56.0215ZM34.3492 74.9877C26.5823 77.7285 14.8773 82.0041 7.32928 76.7418C6.56354 76.1936 2.8442 73.5625 2.8442 69.835C2.8442 66.7654 5.36022 64.6824 6.12597 64.0246C9.40773 61.2838 13.4552 61.1742 15.7525 61.1742C27.0199 61.1742 39.4906 69.2869 42.5536 71.3699C40.6939 72.3565 37.9591 73.6721 34.3492 74.9877ZM93.968 73.2336C92.3271 76.3033 88.7171 77.1803 86.5293 77.6188C80.7315 78.9344 75.9182 77.1803 70.6674 75.2069C67.1668 73.8914 62.2442 71.6988 56.6652 67.8617C62.9006 64.3535 68.2608 62.5994 72.0895 61.6127C79.8564 59.5297 83.3569 60.1875 84.4508 60.5164C86.2011 60.8453 92.874 62.3801 94.5149 67.4231C94.6243 67.5328 95.4995 70.4928 93.968 73.2336Z" fill="url(#paint0_linear_24_24872)"/>
</g>
<defs>
<linearGradient id="paint0_linear_24_24872" x1="-8.79705" y1="104.474" x2="15.2569" y2="-20.831" gradientUnits="userSpaceOnUse">
<stop stop-color="#956224"/>
<stop offset="0.5119" stop-color="#D9BC7C"/>
<stop offset="1" stop-color="#F4C35E"/>
</linearGradient>
<clipPath id="clip0_24_24872">
<rect width="99" height="107" fill="white"/>
</clipPath>
</defs>
</svg>
